<?xml version="1.0" standalone="no"?>
<!DOCTYPE svg PUBLIC "-//W3C//DTD SVG 20010904//EN"
 "http://www.w3.org/TR/2001/REC-SVG-20010904/DTD/svg10.dtd">
<svg version="1.0" xmlns="http://www.w3.org/2000/svg"
 width="700.000000pt" height="700.000000pt" viewBox="0 0 700.000000 700.000000"
 preserveAspectRatio="xMidYMid meet">
<metadata>
Created by potrace 1.14, written by Peter Selinger 2001-2017
</metadata>
<g transform="translate(0.000000,700.000000) scale(0.100000,-0.100000)"
fill="#000000" stroke="none">
<path d="M5250 5010 l0 -257 -191 -136 -190 -137 -335 0 -334 0 0 -340 0 -340
-114 -152 c-63 -84 -141 -188 -173 -231 l-58 -77 -3 788 -2 789 -350 0 -350 0
-2 -873 -3 -874 -30 28 c-16 15 -68 60 -115 101 -47 40 -98 85 -115 100 -16
14 -64 55 -105 91 -155 134 -157 136 -157 183 0 158 -188 234 -299 121 -42
-44 -57 -102 -41 -165 5 -20 -18 -55 -131 -200 -75 -97 -147 -189 -159 -205
-12 -16 -71 -92 -130 -169 l-108 -139 -3 424 -2 425 -338 -2 c-185 0 -343 -2
-349 -2 -10 -1 -13 -209 -13 -1006 l0 -1005 350 0 350 0 0 466 0 465 125 162
c69 89 134 173 145 187 11 14 33 42 50 64 l30 39 0 -692 0 -691 350 0 350 0 0
765 c0 657 2 765 14 758 8 -4 30 -23 50 -40 19 -18 68 -61 108 -95 40 -34 90
-78 111 -98 21 -19 45 -39 53 -43 12 -7 14 -104 14 -627 l0 -620 350 0 350 0
0 675 0 675 129 172 c71 95 149 199 173 231 l43 58 3 -906 2 -905 350 0 350 0
0 1289 0 1289 38 28 c20 16 59 44 87 63 27 19 54 38 60 43 5 5 44 33 85 62
l75 54 3 -1414 2 -1414 350 0 350 0 0 1759 0 1760 -350 -1 -350 -1 0 -257z
m-2680 -1521 c19 -17 62 -55 95 -84 33 -29 71 -62 85 -74 18 -14 21 -21 10
-21 -43 -4 -512 -1 -516 3 -2 2 4 13 13 24 10 12 44 55 75 96 l57 75 43 -5
c24 -3 54 0 68 6 34 13 31 14 70 -20z"/>
</g>
</svg>
